PathFileType	4	(X/Y/Z)	/Users/niels/Desktop/University/Third Semester/Perception and Action/Exam/Gymnastics Motion Tracking/Code for Gym Tracking/Analyzed Data/Webcam_Backflip/id1_1_baseline_Sports2D/id1_1_baseline_Sports2D_px_person00.trc
DataRate	CameraRate	NumFrames	NumMarkers	Units	OrigDataRate	OrigDataStartFrame	OrigNumFrames
29.928057553956833	29.928057553956833	9	22	m	29.928057553956833	208	417
Frame#	Time	Hip			RHip			RKnee			RAnkle			RBigToe			RSmallToe			RHeel			LHip			LKnee			LAnkle			LBigToe			LSmallToe			LHeel			Neck			Head			Nose			RShoulder			RElbow			RWrist			LShoulder			LElbow			LWrist		
		X1	Y1	Z1	X2	Y2	Z2	X3	Y3	Z3	X4	Y4	Z4	X5	Y5	Z5	X6	Y6	Z6	X7	Y7	Z7	X8	Y8	Z8	X9	Y9	Z9	X10	Y10	Z10	X11	Y11	Z11	X12	Y12	Z12	X13	Y13	Z13	X14	Y14	Z14	X15	Y15	Z15	X16	Y16	Z16	X17	Y17	Z17	X18	Y18	Z18	X19	Y19	Z19	X20	Y20	Z20	X21	Y21	Z21	X22	Y22	Z22
208	6.95	0.9928222240975021	-0.4433480082380841	0.0	1.0082828221336129	-0.4205655096519112	0.0	1.2183286748273936	-0.2539460376306052	0.0	1.42306531822815	-0.3528727550258411	0.0	1.4657839191619413	-0.32804696660997457	0.0	1.4700085178518587	-0.3579953414534758	0.0	1.4346081050592814	-0.3934827055896246	0.0	1.0054897085687338	-0.4587772149884429	0.0	1.0630022380020867	-0.715319732765612	0.0	0.991170704825532	-0.9702224994802925	0.0	1.0660253595662632	-1.0347058058075262	0.0	1.052216352754238	-1.0263491648305796	0.0	0.96297943255035	-0.9983295645116059	0.0	1.0523588004981022	-0.11289154046690825	0.0	1.1559893414078508	-0.014383190213562087	0.0	1.1499458060021799	-0.08649448202396973	0.0	1.0450024315619206	-0.10517097691328979	0.0	1.207627791591007	-0.04933961798506704	0.0	1.2736304706378438	-0.010985813924271755	0.0	0.9920193405980423	-0.1386167788351794	0.0	1.1152972303964346	-0.17094229190795052	0.0	1.2494022128645617	-0.07211951012460523	0.0
209	6.983413461538461	0.9789403425442246	-0.4754983939384221	0.0	0.9882653884899694	-0.4585496262999248	0.0	1.201192920201476	-0.2999354879636484	0.0	1.3794357609296062	-0.40938608458825676	0.0	1.4156690080175487	-0.4044052086126853	0.0	1.418084194014447	-0.43369977478302024	0.0	1.3859455047667224	-0.4565093294196822	0.0	0.9955402347026902	-0.4892852954695323	0.0	1.0520497732894984	-0.7457730129148695	0.0	0.9770922233653704	-1.000390004120021	0.0	1.0574246205373539	-1.05577070863996	0.0	1.04476063473357	-1.04955478139238	0.0	0.9487582798554892	-1.0278273314029895	0.0	1.0268643894617193	-0.1432581136025868	0.0	1.1233512168273436	-0.03546984168375567	0.0	1.1201497966084164	-0.1089003811853523	0.0	1.016514698283584	-0.14428464730961643	0.0	1.1725827431922569	-0.09325129141615349	0.0	1.2526433675762063	-0.04256655716942824	0.0	0.9729716098259309	-0.1706475706324103	0.0	1.0853276646978742	-0.21611703406473237	0.0	1.2316141613120763	-0.09124824099673708	0.0
210	7.016826923076923	0.964524958060813	-0.5000466767754337	0.0	0.9688187400947399	-0.49023150265281873	0.0	1.1884293487113118	-0.36073288581601415	0.0	1.325865989029859	-0.4940785846284004	0.0	1.3579120388651984	-0.5133267215931955	0.0	1.3585452095533994	-0.5392904067259062	0.0	1.3250868261819735	-0.5470548264201324	0.0	0.9830784475692547	-0.5130571063702816	0.0	1.0418511170391094	-0.7694121327088251	0.0	0.9686060665350207	-1.0241984094648837	0.0	1.0534881647503964	-1.0709536463593035	0.0	1.0415131487269915	-1.066856772305444	0.0	0.9404844307682673	-1.0510724736966461	0.0	1.003142136737484	-0.1688145538674451	0.0	1.092519061607558	-0.0496632931151227	0.0	1.091811406650971	-0.129454857105325	0.0	0.9885579492543505	-0.17960724810336925	0.0	1.1330178619356754	-0.1493921664910245	0.0	1.226527900774704	-0.08951352701290091	0.0	0.9588947305298205	-0.19797537739404847	0.0	1.0633871784554823	-0.25972603873322475	0.0	1.2100534227134117	-0.12411779618936199	0.0
211	7.0502403846153845	0.949652015728225	-0.5162867784059053	0.0	0.9500436747091652	-0.513555059902928	0.0	1.175241719377927	-0.43200711572339295	0.0	1.2621852215350104	-0.5982484955988306	0.0	1.2952274872265044	-0.6395453048539677	0.0	1.293827886580315	-0.6604993227734892	0.0	1.2531974105608608	-0.6549062900574165	0.0	0.9689393832894496	-0.5288137295339709	0.0	1.0315193695648601	-0.7842662378415284	0.0	0.9649984064739201	-1.039385350514845	0.0	1.0524935942534868	-1.07913264424357	0.0	1.041289368432156	-1.0765937240141608	0.0	0.936878024815444	-1.065913894318603	0.0	0.9815808888975557	-0.1870883236744082	0.0	1.0638783658549515	-0.0564692902986001	0.0	1.0656482261322144	-0.14473094608770734	0.0	0.9613704305623869	-0.20764431135987393	0.0	1.0889209152830115	-0.21238475088943445	0.0	1.1968192371094897	-0.14871502430836606	0.0	0.9500977542158547	-0.2184714770916854	0.0	1.0483902242301182	-0.2978755245591171	0.0	1.18591412206402	-0.1679944101677706	0.0
212	7.083653846153846	0.9344778377439489	-0.5253556119097476	0.0	0.9318116033797385	-0.5284357154656565	0.0	1.1555945454298588	-0.5087651117047439	0.0	1.188430771487851	-0.7092206185434058	0.0	1.2287668387052317	-0.7669328793256791	0.0	1.2247231218939596	-0.7823339570714297	0.0	1.1715420937219405	-0.7672525440380058	0.0	0.9543435956450267	-0.5370985260555072	0.0	1.0203264582193217	-0.7904802147442886	0.0	0.9650790707360648	-1.0457550135827431	0.0	1.0536860960701016	-1.0805495167815224	0.0	1.043683426894366	-1.0786705539795627	0.0	0.9365244126754726	-1.0723440447175376	0.0	0.9624523910984641	-0.19734192498875966	0.0	1.0380672187180329	-0.056962954417236554	0.0	1.0422647844122623	-0.15299134971300496	0.0	0.936064381190183	-0.22672702980846876	0.0	1.0428670733451026	-0.27406262981444474	0.0	1.1657204275458646	-0.21460331077356906	0.0	0.944331105504419	-0.23149617036615835	0.0	1.032740167498761	-0.32858390815572514	0.0	1.1595625766961002	-0.21965460355836355	0.0
213	7.117067307692308	0.9193836637907508	-0.5293398897284626	0.0	0.9140338186347801	-0.5362550639115502	0.0	1.1245883168840551	-0.5849324409456886	0.0	1.105898930820667	-0.8124262586520626	0.0	1.1578076218842372	-0.880741855152569	0.0	1.1502308733377675	-0.8909607908421944	0.0	1.0825668397911434	-0.8693533046531264	0.0	0.9406843878858506	-0.539827702445211	0.0	1.0080097203649798	-0.7899619567690402	0.0	0.9673913367646709	-1.0449469086689318	0.0	1.0571248545764858	-1.0767340296187022	0.0	1.0485503637423825	-1.07452652953638	0.0	0.9383141446838377	-1.0721542928756223	0.0	0.9458092609338556	-0.2005061149931123	0.0	1.0157244095177331	-0.052988936881911766	0.0	1.021911334457047	-0.15450952712738178	0.0	0.9137789210795098	-0.23700443542442243	0.0	0.9982544936187385	-0.32681181506611345	0.0	1.134762241088199	-0.2810693139785652	0.0	0.9389944997170171	-0.23783486532105616	0.0	1.0110654657722211	-0.35262579235603225	0.0	1.130806551556139	-0.274961427066113	0.0
214	7.150480769230769	0.9047009412291298	-0.5305249266177846	0.0	0.8964916999006284	-0.5392663192757575	0.0	1.0805074646847912	-0.6541422554037355	0.0	1.0178664024168886	-0.8953517684534967	0.0	1.0802736589936461	-0.9695195966401802	0.0	1.0683463625632084	-0.9753764893036748	0.0	0.9899609244406096	-0.9472807185614887	0.0	0.9287991409594484	-0.5394963523649746	0.0	0.994711970563893	-0.7857310524227834	0.0	0.9704150183750204	-1.0400840746553122	0.0	1.062597186533989	-1.0704491546264931	0.0	1.0551378100441862	-1.067058976164324	0.0	0.9414143184801139	-1.068472669530912	0.0	0.9313574129690331	-0.19874866290933044	0.0	0.9968291333040494	-0.04662576657495755	0.0	1.00424166448397	-0.15103904438850427	0.0	0.8948158207938971	-0.24018868280619493	0.0	0.9570854230532033	-0.3664083782016936	0.0	1.1036196005107335	-0.3432134059411868	0.0	0.9331505964480911	-0.23928910005216789	0.0	0.9840216864113744	-0.3711341273649843	0.0	1.0992327004225833	-0.3295364023501302	0.0
215	7.183894230769231	0.8900821037585283	-0.5308155928995149	0.0	0.8786399258129589	-0.5398744908721435	0.0	1.0259207348840496	-0.711028473871805	0.0	0.9284608121281444	-0.9508210323302047	0.0	0.9946368248827829	-1.027902886815522	0.0	0.9781433701995143	-1.0301461245828962	0.0	0.897442527196986	-0.9930052795399085	0.0	0.9179859035925185	-0.5383534831115854	0.0	0.9802027819738638	-0.7813569629146818	0.0	0.9721790270979681	-1.0350218600772112	0.0	1.068074851954951	-1.0647460707528276	0.0	1.061008902492292	-1.0597243264013738	0.0	0.944360289578879	-1.0647894594714564	0.0	0.9183969278050357	-0.19467944198113	0.0	0.9807921439725309	-0.039859750283603786	0.0	0.9885058190993162	-0.14506607509065178	0.0	0.878673494983268	-0.23899702622109167	0.0	0.9197729157102454	-0.3927146850914086	0.0	1.0707184218817423	-0.3983871229805465	0.0	0.9263833811779094	-0.23804721670175893	0.0	0.9550209193337634	-0.38445612362961146	0.0	1.0644845275736088	-0.38015656124135383	0.0
216	7.217307692307692	0.8742941554858626	-0.5314988191503859	0.0	0.8597190119787026	-0.5400141830864633	0.0	0.9668536431028592	-0.7526284265301828	0.0	0.8427852114327513	-0.9791522386358634	0.0	0.9048888843419108	-1.0582392214021352	0.0	0.8844638618565891	-1.057519359852256	0.0	0.8096408563612493	-1.0088665496464997	0.0	0.9059415150746286	-0.5379115288739738	0.0	0.9628965352876158	-0.7796780866198505	0.0	0.9689870288381456	-1.032221706917392	0.0	1.0688310333423763	-1.0611173199485493	0.0	1.0614081794552954	-1.0545824874062801	0.0	0.9433307376371074	-1.0629933898459563	0.0	0.9059696610535888	-0.19064586414592263	0.0	0.9668886128300872	-0.0343971569786663	0.0	0.9739570367980155	-0.13909141909601774	0.0	0.8644040579784755	-0.23641144451763899	0.0	0.8861516776068802	-0.4085049061354469	0.0	1.0345197808192552	-0.446196660098825	0.0	0.9175632180007477	-0.23615599331641565	0.0	0.9265180859249955	-0.3933289725798362	0.0	1.0268893200358566	-0.4252401497656749	0.0
